Khula-wt937.36.ufo
<glyph name="exclam.deva" format="1">
  <advance width="909"/>
  <unicode hex="0021"/>
  <outline>
    <contour>
      <point x="603" y="464" type="line"/>
      <point x="306" y="464" type="line"/>
      <point x="260" y="1316" type="line"/>
      <point x="649" y="1316" type="line"/>
    </contour>
    <contour>
      <point x="263" y="149" type="curve" smooth="yes"/>
      <point x="263" y="258"/>
      <point x="330" y="322"/>
      <point x="453" y="322" type="curve" smooth="yes"/>
      <point x="576" y="322"/>
      <point x="640" y="258"/>
      <point x="640" y="149" type="curve" smooth="yes"/>
      <point x="640" y="41"/>
      <point x="570" y="-23"/>
      <point x="453" y="-23" type="curve" smooth="yes"/>
      <point x="334" y="-23"/>
      <point x="263" y="41"/>
    </contour>
  </outline>
</glyph>
<glyph name="numbersign.deva" format="1">
  <advance width="1314"/>
  <unicode hex="0023"/>
  <outline>
    <contour>
      <point x="985" y="732" type="line"/>
      <point x="958" y="580" type="line"/>
      <point x="1176" y="580" type="line"/>
      <point x="1176" y="352" type="line"/>
      <point x="915" y="352" type="line"/>
      <point x="849" y="0" type="line"/>
      <point x="608" y="0" type="line"/>
      <point x="673" y="352" type="line"/>
      <point x="522" y="352" type="line"/>
      <point x="458" y="0" type="line"/>
      <point x="218" y="0" type="line"/>
      <point x="283" y="352" type="line"/>
      <point x="80" y="352" type="line"/>
      <point x="80" y="580" type="line"/>
      <point x="327" y="580" type="line"/>
      <point x="355" y="732" type="line"/>
      <point x="141" y="732" type="line"/>
      <point x="141" y="966" type="line"/>
      <point x="399" y="966" type="line"/>
      <point x="464" y="1316" type="line"/>
      <point x="705" y="1316" type="line"/>
      <point x="638" y="966" type="line"/>
      <point x="788" y="966" type="line"/>
      <point x="852" y="1316" type="line"/>
      <point x="1094" y="1316" type="line"/>
      <point x="1028" y="966" type="line"/>
      <point x="1234" y="966" type="line"/>
      <point x="1234" y="732" type="line"/>
    </contour>
    <contour>
      <point x="567" y="580" type="line"/>
      <point x="716" y="580" type="line"/>
      <point x="744" y="732" type="line"/>
      <point x="594" y="732" type="line"/>
    </contour>
  </outline>
</glyph>
<glyph name="hyphen.deva" format="1">
  <advance width="848"/>
  <unicode hex="002D"/>
  <outline>
    <contour>
      <point x="170" y="434" type="line"/>
      <point x="170" y="714" type="line"/>
      <point x="678" y="714" type="line"/>
      <point x="678" y="434" type="line"/>
    </contour>
  </outline>
</glyph>
<glyph name="semicolon.deva" format="1">
  <advance width="810"/>
  <unicode hex="003B"/>
  <outline>
    <contour>
      <point x="597" y="269" type="line"/>
      <point x="610" y="248" type="line"/>
      <point x="551" y="19"/>
      <point x="498" y="-149"/>
      <point x="451" y="-257" type="curve"/>
      <point x="200" y="-257" type="line"/>
      <point x="217" y="-174"/>
      <point x="235" y="-81"/>
      <point x="252" y="22" type="curve" smooth="yes"/>
      <point x="270" y="125"/>
      <point x="282" y="207"/>
      <point x="289" y="269" type="curve"/>
    </contour>
    <contour>
      <point x="232" y="860" type="curve" smooth="yes"/>
      <point x="232" y="969"/>
      <point x="297" y="1032"/>
      <point x="422" y="1032" type="curve" smooth="yes"/>
      <point x="542" y="1032"/>
      <point x="608" y="968"/>
      <point x="608" y="860" type="curve" smooth="yes"/>
      <point x="608" y="752"/>
      <point x="541" y="688"/>
      <point x="422" y="688" type="curve" smooth="yes"/>
      <point x="299" y="688"/>
      <point x="232" y="751"/>
    </contour>
  </outline>
</glyph>
<glyph name="x" format="1">
  <advance width="1161"/>
  <unicode hex="0078"/>
  <outline>
    <contour>
      <point x="337" y="520" type="line"/>
      <point x="26" y="1020" type="line"/>
      <point x="426" y="1020" type="line"/>
      <point x="580" y="733" type="line"/>
      <point x="739" y="1020" type="line"/>
      <point x="1139" y="1020" type="line"/>
      <point x="820" y="520" type="line"/>
      <point x="1152" y="0" type="line"/>
      <point x="752" y="0" type="line"/>
      <point x="580" y="310" type="line"/>
      <point x="409" y="0" type="line"/>
      <point x="9" y="0" type="line"/>
    </contour>
  </outline>
</glyph>
<glyph name="cadeva" format="1">
  <advance width="1500"/>
  <unicode hex="091A"/>
  <outline>
    <contour>
      <point x="62" y="634" type="line"/>
      <point x="62" y="908" type="line"/>
      <point x="832" y="908" type="line"/>
      <point x="832" y="634" type="line"/>
    </contour>
    <contour>
      <point x="1008" y="591" type="curve"/>
      <point x="1008" y="182" type="line"/>
      <point x="949" y="157"/>
      <point x="865" y="138"/>
      <point x="760" y="138" type="curve" smooth="yes"/>
      <point x="478" y="138"/>
      <point x="297" y="295"/>
      <point x="297" y="527" type="curve" smooth="yes"/>
      <point x="297" y="720"/>
      <point x="426" y="878"/>
      <point x="750" y="878" type="curve"/>
      <point x="782" y="637" type="line"/>
      <point x="666" y="638"/>
      <point x="609" y="564"/>
      <point x="609" y="499" type="curve" smooth="yes"/>
      <point x="609" y="444"/>
      <point x="650" y="405"/>
      <point x="729" y="405" type="curve" smooth="yes"/>
      <point x="841" y="405"/>
      <point x="956" y="472"/>
    </contour>
    <contour>
      <point x="-30" y="1065" type="line"/>
      <point x="-30" y="1293" type="line"/>
      <point x="1530" y="1293" type="line"/>
      <point x="1530" y="1065" type="line"/>
    </contour>
    <contour>
      <point x="963" y="1104" type="line"/>
      <point x="1312" y="1104" type="line"/>
      <point x="1312" y="0" type="line"/>
      <point x="963" y="0" type="line"/>
    </contour>
    <contour>
      <point x="963" y="1293" type="move" name="top"/>
    </contour>
  </outline>
</glyph>
<glyph name="padeva" format="1">
  <advance width="1306"/>
  <unicode hex="092A"/>
  <outline>
    <contour>
      <point x="1336" y="1065" type="line"/>
      <point x="-30" y="1065" type="line"/>
      <point x="-30" y="1293" type="line"/>
      <point x="1336" y="1293" type="line"/>
    </contour>
    <contour>
      <point x="461" y="1105" type="line"/>
      <point x="461" y="688" type="line"/>
      <point x="461" y="599"/>
      <point x="501" y="549"/>
      <point x="575" y="549" type="curve" smooth="yes"/>
      <point x="661" y="549"/>
      <point x="733" y="588"/>
      <point x="795" y="677" type="curve"/>
      <point x="795" y="294" type="line"/>
      <point x="747" y="282"/>
      <point x="683" y="273"/>
      <point x="613" y="273" type="curve" smooth="yes"/>
      <point x="314" y="273"/>
      <point x="113" y="453"/>
      <point x="113" y="756" type="curve" smooth="yes"/>
      <point x="113" y="1105" type="line"/>
    </contour>
    <contour>
      <point x="769" y="1104" type="line"/>
      <point x="1118" y="1104" type="line"/>
      <point x="1118" y="0" type="line"/>
      <point x="769" y="0" type="line"/>
    </contour>
    <contour>
      <point x="769" y="1293" type="move" name="top"/>
    </contour>
  </outline>
</glyph>
<glyph name="hadeva" format="1">
  <advance width="1247"/>
  <unicode hex="0939"/>
  <outline>
    <contour>
      <point x="711" y="1077" type="line"/>
      <point x="1059" y="1077" type="line"/>
      <point x="1059" y="707" type="line"/>
      <point x="520" y="707" type="line"/>
      <point x="423" y="707"/>
      <point x="384" y="668"/>
      <point x="384" y="616" type="curve" smooth="yes"/>
      <point x="384" y="563"/>
      <point x="431" y="531"/>
      <point x="526" y="509" type="curve"/>
      <point x="295" y="340" type="line"/>
      <point x="127" y="440"/>
      <point x="48" y="552"/>
      <point x="48" y="686" type="curve" smooth="yes"/>
      <point x="48" y="825"/>
      <point x="158" y="935"/>
      <point x="380" y="935" type="curve" smooth="yes"/>
      <point x="750" y="935" type="line"/>
      <point x="711" y="883" type="line"/>
    </contour>
    <contour>
      <point x="668" y="573" type="curve" smooth="yes"/>
      <point x="1015" y="573"/>
      <point x="1168" y="404"/>
      <point x="1168" y="227" type="curve" smooth="yes"/>
      <point x="1168" y="147"/>
      <point x="1150" y="89"/>
      <point x="1116" y="19" type="curve"/>
      <point x="834" y="67" type="line"/>
      <point x="857" y="114"/>
      <point x="868" y="148"/>
      <point x="868" y="198" type="curve" smooth="yes"/>
      <point x="868" y="261"/>
      <point x="817" y="319"/>
      <point x="693" y="319" type="curve" smooth="yes"/>
      <point x="567" y="319"/>
      <point x="488" y="229"/>
      <point x="488" y="140" type="curve" smooth="yes"/>
      <point x="488" y="13"/>
      <point x="589" y="-76"/>
      <point x="1053" y="-134" type="curve"/>
      <point x="964" y="-363" type="line"/>
      <point x="402" y="-296"/>
      <point x="162" y="-105"/>
      <point x="162" y="180" type="curve" smooth="yes"/>
      <point x="162" y="391"/>
      <point x="331" y="573"/>
    </contour>
    <contour>
      <point x="1277" y="1065" type="line"/>
      <point x="-30" y="1065" type="line"/>
      <point x="-30" y="1293" type="line"/>
      <point x="1277" y="1293" type="line"/>
    </contour>
    <contour>
      <point x="711" y="1293" type="move" name="top"/>
    </contour>
  </outline>
</glyph>
<glyph name="omdeva" format="1">
  <advance width="2081"/>
  <unicode hex="0950"/>
  <outline>
    <contour>
      <point x="648" y="970" type="curve" smooth="yes"/>
      <point x="648" y="1016"/>
      <point x="615" y="1049"/>
      <point x="536" y="1049" type="curve" smooth="yes"/>
      <point x="451" y="1049"/>
      <point x="364" y="1022"/>
      <point x="243" y="962" type="curve"/>
      <point x="166" y="1223" type="line"/>
      <point x="290" y="1278"/>
      <point x="406" y="1302"/>
      <point x="548" y="1302" type="curve" smooth="yes"/>
      <point x="828" y="1302"/>
      <point x="960" y="1142"/>
      <point x="960" y="939" type="curve" smooth="yes"/>
      <point x="960" y="715"/>
      <point x="758" y="592"/>
      <point x="388" y="564" type="curve" smooth="yes"/>
      <point x="363" y="563" type="line"/>
      <point x="303" y="820" type="line"/>
      <point x="316" y="821" type="line"/>
      <point x="592" y="841"/>
      <point x="648" y="893"/>
    </contour>
    <contour>
      <point x="750" y="772" type="line"/>
      <point x="890" y="719"/>
      <point x="1014" y="586"/>
      <point x="1014" y="419" type="curve" smooth="yes"/>
      <point x="1014" y="229"/>
      <point x="868" y="77"/>
      <point x="616" y="77" type="curve" smooth="yes"/>
      <point x="453" y="77"/>
      <point x="315" y="122"/>
      <point x="123" y="229" type="curve"/>
      <point x="188" y="480" type="line"/>
      <point x="341" y="381"/>
      <point x="419" y="353"/>
      <point x="521" y="353" type="curve" smooth="yes"/>
      <point x="628" y="353"/>
      <point x="694" y="408"/>
      <point x="694" y="489" type="curve" smooth="yes"/>
      <point x="694" y="552"/>
      <point x="644" y="614"/>
      <point x="569" y="637" type="curve"/>
    </contour>
    <contour>
      <point x="1645" y="862" type="curve" smooth="yes"/>
      <point x="1581" y="862"/>
      <point x="1511" y="799"/>
      <point x="1463" y="691" type="curve" smooth="yes"/>
      <point x="1356" y="445"/>
      <point x="1248" y="306"/>
      <point x="1085" y="306" type="curve" smooth="yes"/>
      <point x="986" y="306"/>
      <point x="927" y="314"/>
      <point x="860" y="331" type="curve"/>
      <point x="819" y="590" type="line"/>
      <point x="889" y="570"/>
      <point x="933" y="550"/>
      <point x="979" y="555" type="curve" smooth="yes"/>
      <point x="1041" y="561"/>
      <point x="1083" y="641"/>
      <point x="1141" y="787" type="curve" smooth="yes"/>
      <point x="1200" y="935"/>
      <point x="1324" y="1149"/>
      <point x="1603" y="1149" type="curve" smooth="yes"/>
      <point x="1902" y="1149"/>
      <point x="2053" y="936"/>
      <point x="2053" y="710" type="curve" smooth="yes"/>
      <point x="2053" y="493"/>
      <point x="1898" y="298"/>
      <point x="1637" y="298" type="curve" smooth="yes"/>
      <point x="1454" y="298"/>
      <point x="1310" y="373"/>
      <point x="1157" y="498" type="curve"/>
      <point x="1275" y="694" type="line"/>
      <point x="1373" y="621"/>
      <point x="1468" y="563"/>
      <point x="1560" y="563" type="curve" smooth="yes"/>
      <point x="1657" y="563"/>
      <point x="1747" y="641"/>
      <point x="1747" y="744" type="curve" smooth="yes"/>
      <point x="1747" y="824"/>
      <point x="1703" y="862"/>
    </contour>
    <component base="candrabindudeva" xOffset="1544" yOffset="-93"/>
  </outline>
</glyph>
<glyph name="yyadeva" format="1">
  <advance width="1422"/>
  <unicode hex="095F"/>
  <outline>
    <component base="yadeva"/>
    <component base="nuktadeva" xOffset="1131" yOffset="356"/>
    <contour>
      <point x="885" y="1293" type="move" name="top"/>
    </contour>
  </outline>
</glyph>
<glyph name="rrvocalicdeva" format="1">
  <advance width="1915"/>
  <unicode hex="0960"/>
  <outline>
    <contour>
      <point x="1017" y="765" type="line"/>
      <point x="1059" y="710"/>
      <point x="1103" y="687"/>
      <point x="1177" y="687" type="curve" smooth="yes"/>
      <point x="1235" y="687"/>
      <point x="1295" y="697"/>
      <point x="1384" y="733" type="curve"/>
      <point x="1277" y="646" type="line"/>
      <point x="1250" y="700"/>
      <point x="1232" y="742"/>
      <point x="1232" y="787" type="curve" smooth="yes"/>
      <point x="1232" y="854"/>
      <point x="1283" y="912"/>
      <point x="1402" y="912" type="curve" smooth="yes"/>
      <point x="1585" y="912"/>
      <point x="1731" y="812"/>
      <point x="1731" y="707" type="curve" smooth="yes"/>
      <point x="1731" y="539"/>
      <point x="1512" y="425"/>
      <point x="1207" y="425" type="curve" smooth="yes"/>
      <point x="1097" y="425"/>
      <point x="992" y="447"/>
      <point x="893" y="503" type="curve"/>
    </contour>
    <contour>
      <point x="1238" y="1065" type="line"/>
      <point x="1238" y="1293" type="line"/>
      <point x="1945" y="1293" type="line"/>
      <point x="1945" y="1065" type="line"/>
    </contour>
    <contour>
      <point x="1563" y="198" type="curve" smooth="yes"/>
      <point x="1563" y="155"/>
      <point x="1601" y="122"/>
      <point x="1671" y="122" type="curve" smooth="yes"/>
      <point x="1728" y="122"/>
      <point x="1776" y="137"/>
      <point x="1854" y="171" type="curve"/>
      <point x="1889" y="-50" type="line"/>
      <point x="1802" y="-82"/>
      <point x="1736" y="-89"/>
      <point x="1652" y="-89" type="curve" smooth="yes"/>
      <point x="1425" y="-89"/>
      <point x="1264" y="27"/>
      <point x="1264" y="199" type="curve" smooth="yes"/>
      <point x="1264" y="325"/>
      <point x="1372" y="415"/>
      <point x="1592" y="464" type="curve"/>
      <point x="1451" y="382" type="line"/>
      <point x="1345" y="525" type="line"/>
      <point x="1578" y="639" type="line"/>
      <point x="1761" y="406" type="line"/>
      <point x="1740" y="328" type="line"/>
      <point x="1614" y="295"/>
      <point x="1563" y="249"/>
    </contour>
    <component base="taradeva"/>
  </outline>
</glyph>
<glyph name="eightdeva" format="1">
  <advance width="1123"/>
  <unicode hex="096E"/>
  <outline>
    <contour>
      <point x="643" y="1316" type="line"/>
      <point x="931" y="1089" type="line"/>
      <point x="524" y="627" type="line"/>
      <point x="451" y="544"/>
      <point x="433" y="495"/>
      <point x="433" y="440" type="curve" smooth="yes"/>
      <point x="433" y="377"/>
      <point x="493" y="321"/>
      <point x="571" y="321" type="curve" smooth="yes"/>
      <point x="674" y="322"/>
      <point x="784" y="368"/>
      <point x="967" y="507" type="curve"/>
      <point x="1151" y="204" type="line"/>
      <point x="965" y="69"/>
      <point x="820" y="23"/>
      <point x="622" y="23" type="curve" smooth="yes"/>
      <point x="295" y="23"/>
      <point x="75" y="227"/>
      <point x="75" y="484" type="curve" smooth="yes"/>
      <point x="75" y="603"/>
      <point x="111" y="713"/>
      <point x="224" y="841" type="curve" smooth="yes"/>
    </contour>
  </outline>
</glyph>
<glyph name="uni097D" format="1">
  <advance width="1123"/>
  <unicode hex="097D"/>
  <outline>
    <contour>
      <point x="654" y="521" type="line"/>
      <point x="654" y="0" type="line"/>
      <point x="306" y="0" type="line"/>
      <point x="306" y="692" type="line"/>
      <point x="318" y="693" type="line"/>
      <point x="591" y="713"/>
      <point x="679" y="833"/>
      <point x="679" y="920" type="curve" smooth="yes"/>
      <point x="679" y="996"/>
      <point x="626" y="1048"/>
      <point x="534" y="1048" type="curve" smooth="yes"/>
      <point x="450" y="1048"/>
      <point x="363" y="1021"/>
      <point x="242" y="963" type="curve"/>
      <point x="165" y="1224" type="line"/>
      <point x="289" y="1278"/>
      <point x="406" y="1302"/>
      <point x="547" y="1302" type="curve" smooth="yes"/>
      <point x="830" y="1302"/>
      <point x="991" y="1122"/>
      <point x="991" y="889" type="curve" smooth="yes"/>
      <point x="991" y="668"/>
      <point x="796" y="505"/>
      <point x="616" y="479" type="curve"/>
    </contour>
  </outline>
</glyph>
<glyph name="baprehalfdeva" format="1">
  <advance width="719"/>
  <outline>
    <contour>
      <point x="749" y="1065" type="line"/>
      <point x="-30" y="1065" type="line"/>
      <point x="-30" y="1293" type="line"/>
      <point x="749" y="1293" type="line"/>
    </contour>
    <contour>
      <point x="768" y="437" type="line"/>
      <point x="641" y="343" type="line"/>
      <point x="335" y="693" type="line"/>
      <point x="461" y="786" type="line"/>
    </contour>
    <contour>
      <point x="753" y="578" type="curve" smooth="yes"/>
      <point x="753" y="637"/>
      <point x="678" y="706"/>
      <point x="558" y="706" type="curve" smooth="yes"/>
      <point x="431" y="706"/>
      <point x="370" y="644"/>
      <point x="370" y="553" type="curve" smooth="yes"/>
      <point x="370" y="478"/>
      <point x="430" y="418"/>
      <point x="522" y="418" type="curve" smooth="yes"/>
      <point x="678" y="418"/>
      <point x="753" y="490"/>
    </contour>
    <contour>
      <point x="1044" y="559" type="curve" smooth="yes"/>
      <point x="1044" y="336"/>
      <point x="834" y="159"/>
      <point x="559" y="159" type="curve" smooth="yes"/>
      <point x="249" y="159"/>
      <point x="58" y="371"/>
      <point x="58" y="610" type="curve" smooth="yes"/>
      <point x="58" y="813"/>
      <point x="227" y="949"/>
      <point x="475" y="949" type="curve" smooth="yes"/>
      <point x="860" y="949"/>
      <point x="1044" y="752"/>
    </contour>
  </outline>
</glyph>
<glyph name="caprehalfdeva" format="1">
  <advance width="922"/>
  <outline>
    <contour>
      <point x="24" y="634" type="line"/>
      <point x="24" y="908" type="line"/>
      <point x="776" y="908" type="line"/>
      <point x="776" y="634" type="line"/>
    </contour>
    <contour>
      <point x="1112" y="662" type="curve"/>
      <point x="1280" y="420" type="line"/>
      <point x="1107" y="247"/>
      <point x="927" y="138"/>
      <point x="694" y="138" type="curve" smooth="yes"/>
      <point x="412" y="138"/>
      <point x="234" y="301"/>
      <point x="234" y="525" type="curve" smooth="yes"/>
      <point x="234" y="710"/>
      <point x="361" y="878"/>
      <point x="684" y="878" type="curve"/>
      <point x="716" y="637" type="line"/>
      <point x="601" y="638"/>
      <point x="543" y="564"/>
      <point x="543" y="499" type="curve" smooth="yes"/>
      <point x="543" y="444"/>
      <point x="586" y="405"/>
      <point x="664" y="405" type="curve" smooth="yes"/>
      <point x="802" y="405"/>
      <point x="952" y="482"/>
    </contour>
    <contour>
      <point x="-30" y="1065" type="line"/>
      <point x="-30" y="1293" type="line"/>
      <point x="952" y="1293" type="line"/>
      <point x="952" y="1065" type="line"/>
    </contour>
  </outline>
</glyph>
<glyph name="ivowelsign09deva" format="1">
  <advance width="676"/>
  <outline>
    <contour>
      <point x="139" y="1254" type="line"/>
      <point x="139" y="1339" type="line"/>
      <point x="139" y="1589"/>
      <point x="316" y="1823"/>
      <point x="887" y="1823" type="curve" smooth="yes"/>
      <point x="1423" y="1823"/>
      <point x="2319" y="1760"/>
      <point x="2965" y="1674" type="curve"/>
      <point x="2928" y="1429" type="line"/>
      <point x="2304" y="1499"/>
      <point x="1446" y="1542"/>
      <point x="984" y="1542" type="curve" smooth="yes"/>
      <point x="574" y="1542"/>
      <point x="487" y="1427"/>
      <point x="487" y="1312" type="curve" smooth="yes"/>
      <point x="487" y="1254" type="line"/>
    </contour>
    <component base="aavowelsigndeva"/>
  </outline>
</glyph>
<glyph name="janyaraprehalfdeva" format="1">
  <advance width="1021"/>
  <outline>
    <contour>
      <point x="1328" y="493" type="line"/>
      <point x="873" y="-22" type="line"/>
      <point x="646" y="154" type="line"/>
      <point x="1112" y="679" type="line"/>
    </contour>
    <contour>
      <point x="481" y="144" type="curve"/>
      <point x="515" y="100" type="line"/>
      <point x="751" y="-205" type="line"/>
      <point x="522" y="-310" type="line"/>
      <point x="239" y="51" type="line"/>
      <point x="363" y="-16" type="line"/>
      <point x="119" y="-16"/>
      <point x="34" y="63"/>
      <point x="34" y="151" type="curve" smooth="yes"/>
      <point x="34" y="240"/>
      <point x="120" y="318"/>
      <point x="227" y="318" type="curve" smooth="yes"/>
      <point x="316" y="318"/>
      <point x="384" y="271"/>
    </contour>
    <contour>
      <point x="-30" y="1065" type="line"/>
      <point x="-30" y="1293" type="line"/>
      <point x="1051" y="1293" type="line"/>
      <point x="1051" y="1065" type="line"/>
    </contour>
    <contour>
      <point x="487" y="730" type="line"/>
      <point x="422" y="730"/>
      <point x="410" y="718"/>
      <point x="410" y="684" type="curve" smooth="yes"/>
      <point x="410" y="651"/>
      <point x="444" y="632"/>
      <point x="561" y="609" type="curve" smooth="yes"/>
      <point x="729" y="575"/>
      <point x="842" y="461"/>
      <point x="842" y="308" type="curve" smooth="yes"/>
      <point x="842" y="149"/>
      <point x="670" y="-14"/>
      <point x="411" y="-14" type="curve"/>
      <point x="379" y="207" type="line"/>
      <point x="497" y="207"/>
      <point x="537" y="257"/>
      <point x="537" y="305" type="curve" smooth="yes"/>
      <point x="537" y="356"/>
      <point x="484" y="392"/>
      <point x="359" y="431" type="curve" smooth="yes"/>
      <point x="175" y="489"/>
      <point x="68" y="574"/>
      <point x="68" y="723" type="curve" smooth="yes"/>
      <point x="68" y="853"/>
      <point x="198" y="950"/>
      <point x="400" y="950" type="curve" smooth="yes"/>
      <point x="1137" y="950" type="line"/>
      <point x="1137" y="730" type="line"/>
    </contour>
  </outline>
</glyph>
<glyph name="katadeva" format="1">
  <advance width="1996"/>
  <outline>
    <contour>
      <point x="1193" y="1065" type="line"/>
      <point x="1193" y="1293" type="line"/>
      <point x="2026" y="1293" type="line"/>
      <point x="2026" y="1065" type="line"/>
    </contour>
    <contour>
      <point x="1226" y="354" type="curve"/>
      <point x="1217" y="824" type="line"/>
      <point x="1261" y="833"/>
      <point x="1337" y="843"/>
      <point x="1414" y="843" type="curve" smooth="yes"/>
      <point x="1688" y="843"/>
      <point x="1886" y="684"/>
      <point x="1886" y="445" type="curve" smooth="yes"/>
      <point x="1886" y="325"/>
      <point x="1838" y="205"/>
      <point x="1763" y="108" type="curve"/>
      <point x="1467" y="211" type="line"/>
      <point x="1532" y="305"/>
      <point x="1568" y="386"/>
      <point x="1568" y="466" type="curve" smooth="yes"/>
      <point x="1568" y="525"/>
      <point x="1530" y="564"/>
      <point x="1465" y="564" type="curve" smooth="yes"/>
      <point x="1386" y="564"/>
      <point x="1306" y="497"/>
    </contour>
    <component base="tatadeva"/>
    <contour>
      <point x="946" y="0" type="move" name="btm"/>
    </contour>
    <contour>
      <point x="946" y="1293" type="move" name="top"/>
    </contour>
  </outline>
</glyph>
<glyph name="maprehalfdeva" format="1">
  <advance width="833"/>
  <outline>
    <contour>
      <point x="-30" y="1065" type="line"/>
      <point x="-30" y="1293" type="line"/>
      <point x="863" y="1293" type="line"/>
      <point x="863" y="1065" type="line"/>
    </contour>
    <contour>
      <point x="41" y="572" type="curve" smooth="yes"/>
      <point x="41" y="643"/>
      <point x="85" y="693"/>
      <point x="172" y="693" type="curve" smooth="yes"/>
      <point x="250" y="693" type="line"/>
      <point x="214" y="663" type="line"/>
      <point x="214" y="1104" type="line"/>
      <point x="562" y="1104" type="line"/>
      <point x="562" y="650" type="line"/>
      <point x="530" y="693" type="line"/>
      <point x="1071" y="693" type="line"/>
      <point x="1092" y="410" type="line"/>
      <point x="512" y="410" type="line"/>
      <point x="562" y="459" type="line"/>
      <point x="562" y="329" type="line"/>
      <point x="562" y="240"/>
      <point x="528" y="187"/>
      <point x="441" y="187" type="curve" smooth="yes"/>
      <point x="358" y="187"/>
      <point x="244" y="239"/>
      <point x="166" y="318" type="curve" smooth="yes"/>
      <point x="96" y="387"/>
      <point x="41" y="486"/>
    </contour>
  </outline>
</glyph>
<glyph name="naprehalfdeva" format="1">
  <advance width="717"/>
  <outline>
    <contour>
      <point x="983" y="768" type="line"/>
      <point x="983" y="485" type="line"/>
      <point x="429" y="485" type="line"/>
      <point x="479" y="536" type="line"/>
      <point x="479" y="299" type="line"/>
      <point x="479" y="210"/>
      <point x="434" y="157"/>
      <point x="365" y="157" type="curve" smooth="yes"/>
      <point x="315" y="157"/>
      <point x="264" y="182"/>
      <point x="206" y="241" type="curve" smooth="yes"/>
      <point x="133" y="313"/>
      <point x="51" y="459"/>
      <point x="51" y="595" type="curve" smooth="yes"/>
      <point x="51" y="706"/>
      <point x="108" y="768"/>
      <point x="242" y="768" type="curve" smooth="yes"/>
    </contour>
    <contour>
      <point x="-30" y="1065" type="line"/>
      <point x="-30" y="1293" type="line"/>
      <point x="747" y="1293" type="line"/>
      <point x="747" y="1065" type="line"/>
    </contour>
  </outline>
</glyph>
<glyph name="raradeva" format="1">
  <advance width="1004"/>
  <outline>
    <component base="vattudeva" xOffset="924" yOffset="-3"/>
    <component base="radeva"/>
    <contour>
      <point x="402" y="-410" type="move" name="btm"/>
    </contour>
    <contour>
      <point x="526" y="1293" type="move" name="top"/>
    </contour>
  </outline>
</glyph>
<glyph name="shanadeva" format="1">
  <advance width="1632"/>
  <outline>
    <contour>
      <point x="198" y="327" type="line"/>
      <point x="48" y="576" type="line"/>
      <point x="334" y="722" type="line"/>
      <point x="575" y="845"/>
      <point x="635" y="911"/>
      <point x="635" y="982" type="curve" smooth="yes"/>
      <point x="635" y="1037"/>
      <point x="601" y="1076"/>
      <point x="547" y="1076" type="curve" smooth="yes"/>
      <point x="480" y="1076"/>
      <point x="450" y="1036"/>
      <point x="450" y="986" type="curve" smooth="yes"/>
      <point x="450" y="872"/>
      <point x="685" y="775"/>
      <point x="1270" y="691" type="curve"/>
      <point x="1199" y="456" type="line"/>
      <point x="421" y="536"/>
      <point x="148" y="768"/>
      <point x="148" y="1027" type="curve" smooth="yes"/>
      <point x="148" y="1180"/>
      <point x="274" y="1326"/>
      <point x="522" y="1326" type="curve" smooth="yes"/>
      <point x="776" y="1326"/>
      <point x="917" y="1166"/>
      <point x="917" y="977" type="curve" smooth="yes"/>
      <point x="917" y="787"/>
      <point x="787" y="631"/>
      <point x="477" y="471" type="curve" smooth="yes"/>
    </contour>
    <contour>
      <point x="1122" y="618" type="line"/>
      <point x="1251" y="376" type="line"/>
      <point x="739" y="103" type="line"/>
      <point x="760" y="171" type="line"/>
      <point x="869" y="-30" type="line"/>
      <point x="885" y="-62"/>
      <point x="893" y="-82"/>
      <point x="893" y="-108" type="curve" smooth="yes"/>
      <point x="893" y="-157"/>
      <point x="864" y="-192"/>
      <point x="798" y="-192" type="curve" smooth="yes"/>
      <point x="700" y="-192"/>
      <point x="557" y="-113"/>
      <point x="462" y="-19" type="curve" smooth="yes"/>
      <point x="406" y="38"/>
      <point x="368" y="97"/>
      <point x="368" y="148" type="curve" smooth="yes"/>
      <point x="368" y="206"/>
      <point x="396" y="246"/>
      <point x="476" y="287" type="curve" smooth="yes"/>
    </contour>
    <contour>
      <point x="1090" y="1104" type="line"/>
      <point x="1438" y="1104" type="line"/>
      <point x="1438" y="0" type="line"/>
      <point x="1090" y="0" type="line"/>
    </contour>
    <contour>
      <point x="1662" y="1065" type="line"/>
      <point x="1008" y="1065" type="line"/>
      <point x="1008" y="1293" type="line"/>
      <point x="1662" y="1293" type="line"/>
    </contour>
    <contour>
      <point x="1090" y="1293" type="move" name="top"/>
    </contour>
  </outline>
</glyph>
